HIERARCHY
ROOT Hips
{
	OFFSET 0.00000 0.00000 0.00000
	CHANNELS 6 Xposition Yposition Zposition Yrotation Zrotation Xrotation 
	JOINT Lumbar
	{
		OFFSET 0 0 0
		CHANNELS 3 Zrotation Xrotation Yrotation
		JOINT Neck
		{
			OFFSET 0.00 0.2701 0.00
			CHANNELS 3 Zrotation Xrotation Yrotation
			End Site
			{
				OFFSET 0.00 0.1379 0.00
			}
		}
		JOINT RightShoulder
		{
			OFFSET 0.0119 0.2289 0.1181
			CHANNELS 3 Zrotation Xrotation Yrotation
			JOINT RightElbow
			{
				OFFSET 0.00 -0.1475 0.00
				CHANNELS 2 Zrotation Yrotation
				JOINT RightWrist
				{
					OFFSET 0.00 -0.1605 0.00
					CHANNELS 2 Zrotation Xrotation
					End Site
					{
						OFFSET 0.0040 -0.1068 0.0006
					}
				}
			}
		}
		JOINT LeftShoulder
		{
			OFFSET 0.0119 0.2289 -0.1181
			CHANNELS 3 Zrotation Xrotation Yrotation
			JOINT LeftElbow
			{
				OFFSET 0.00 -0.1475 0.00
				CHANNELS 2 Zrotation Yrotation
				JOINT LeftWrist
				{
					OFFSET 0.00 -0.1605 0.00
					CHANNELS 2 Zrotation Xrotation
					End Site
					{
						OFFSET 0.0040 -0.1068 -0.0006
					}
				}
			}
		}
	}
	JOINT RightHip
	{
		OFFSET 0.0316 -0.0424 0.0458
		CHANNELS 3 Zrotation Xrotation Yrotation
		JOINT RightKnee
		{
			OFFSET 0.00 -0.2438 0.00
			CHANNELS 1 Zrotation
			JOINT RightAnkle
			{
				OFFSET 0.00 -0.2449 0.00
				CHANNELS 3 Zrotation Xrotation Yrotation
				End Site
				{
					OFFSET 0.1237 -0.0542 0.0051
				}
			}
		}
	}
	JOINT LeftHip
	{
		OFFSET 0.0316 -0.0424 -0.0458
		CHANNELS 3 Zrotation Xrotation Yrotation
		JOINT LeftKnee
		{
			OFFSET 0.00 -0.2438 0.00
			CHANNELS 1 Zrotation
			JOINT LeftAnkle
			{
				OFFSET 0.00 -0.2449 0.00
				CHANNELS 3 Zrotation Xrotation Yrotation
				End Site
				{
					OFFSET 0.1237 -0.0542 -0.0051
				}
			}
		}
	}
}
MOTION
Frames: 33
Frame Time: 0.02
0.00145 0.00052 -0.00026 -173.0614 -39.3006 0.67163 43.79312 2.98073 0.18792 15.03737 -8.71402 -1.08877 28.05006 -10.41132 15.48532 32.01541 83.66949 1.67275 -1.02503 32.61436 4.63098 -16.99407 43.96974 -82.21777 -0.86365 1.12678 42.89449 -1.38167 -8.21376 -19.89121 -6.36302 -2.47659 -3.39191 49.32781 3.34377 2.25476 -24.70371 -7.11554 0.77863 2.6441
0.00119 0.00039 -0.0007 -172.99684 -39.30528 0.70811 43.87092 2.99926 0.30425 14.55494 -8.47784 -1.09073 26.4763 -10.46881 14.66809 31.64068 83.75643 1.73051 -0.99273 30.07498 5.12362 -16.54279 44.16587 -82.28183 -0.89907 0.98922 42.87168 -1.40971 -8.48965 -19.91025 -6.35465 -2.44054 -3.37785 49.31596 3.40249 2.44958 -24.70535 -7.12203 0.76046 2.63529
0.00094 0.00026 -0.00113 -172.93248 -39.30999 0.74451 43.94864 3.01781 0.42009 14.07314 -8.24226 -1.09269 24.90389 -10.52619 13.85109 31.26666 83.84424 1.78801 -0.95963 27.53833 5.61509 -16.09096 44.36082 -82.34529 -0.93478 0.85194 42.84888 -1.43765 -8.76469 -19.92921 -6.3463 -2.40458 -3.36382 49.3041 3.46108 2.64399 -24.70697 -7.12851 0.74234 2.6265
0.00069 0.00013 -0.00156 -172.86812 -39.31467 0.78088 44.02622 3.03629 0.53606 13.59207 -8.00678 -1.09465 23.33447 -10.58351 13.03604 30.89301 83.93117 1.84558 -0.92723 25.006 6.10626 -15.64069 44.55627 -82.40904 -0.97019 0.71476 42.82613 -1.4656 -9.03972 -19.94819 -6.33796 -2.36864 -3.3498 49.29228 3.51962 2.83824 -24.7086 -7.13498 0.72422 2.61771
0.00044 -0 -0.00199 -172.80356 -39.31931 0.81731 44.10383 3.05474 0.65255 13.11065 -7.77076 -1.09661 21.76485 -10.64093 12.22152 30.51883 84.01659 1.90344 -0.89613 22.47268 6.59853 -15.19187 44.7531 -82.47366 -1.00504 0.57745 42.80338 -1.49365 -9.3156 -19.96726 -6.3296 -2.3326 -3.33574 49.28049 3.57828 3.03282 -24.71023 -7.14148 0.70606 2.60891
0.00018 -0.00013 -0.00241 -172.73963 -39.32417 0.85367 44.1818 3.0735 0.767 12.62808 -7.53614 -1.09857 20.18663 -10.6982 11.39931 30.14517 84.10928 1.96015 -0.85894 19.92916 7.0883 -14.73387 44.94409 -82.53479 -1.04248 0.44027 42.78047 -1.52137 -9.58886 -19.986 -6.32128 -2.29684 -3.32178 49.26846 3.63673 3.22687 -24.71185 -7.14789 0.68802 2.60016
-7e-05 -0.00026 -0.00285 -172.67452 -39.32858 0.89011 44.25893 3.0916 0.88549 12.14847 -7.2989 -1.10053 18.62785 -10.75572 10.59377 29.77086 84.18781 2.01913 -0.83361 17.40942 7.58244 -14.29434 45.14662 -82.60251 -1.07501 0.30278 42.75794 -1.54973 -9.86707 -20.00538 -6.31288 -2.26056 -3.30764 49.25695 3.69552 3.42177 -24.71349 -7.15446 0.66976 2.59131
-0.00032 -0.00039 -0.00328 -172.61045 -39.3334 0.9265 44.33689 3.11031 1.00014 11.66593 -7.06418 -1.10249 17.05042 -10.81296 9.77233 29.39721 84.27837 2.07598 -0.79812 14.86692 8.07273 -13.83872 45.3385 -82.66481 -1.11144 0.16592 42.735 -1.5775 -10.14074 -20.02416 -6.30456 -2.22475 -3.29366 49.24491 3.754 3.61588 -24.7151 -7.16089 0.6517 2.58255
-0.00058 -0.00052 -0.0037 -172.5478 -39.33875 0.96276 44.41567 3.12978 1.11058 11.18024 -6.83202 -1.10445 15.45179 -10.87013 8.93278 29.0239 84.38795 2.13042 -0.74695 12.29791 8.55788 -13.35916 45.51738 -82.71783 -1.15518 0.02839 42.71177 -1.60454 -10.40889 -20.04227 -6.29632 -2.18954 -3.27988 49.23242 3.81214 3.80919 -24.71673 -7.16716 0.63387 2.5739
-0.0008 -0.00065 -0.00415 -172.47741 -39.34113 0.99959 44.48916 3.14492 1.24669 10.71392 -6.58354 -1.10642 13.97981 -10.92852 8.20133 28.64719 84.40109 2.19929 -0.77617 9.88521 9.07133 -13.00442 45.77113 -82.81626 -1.16451 -0.1096 42.69086 -1.63573 -10.70888 -20.06442 -6.28757 -2.15094 -3.26498 49.22312 3.87237 4.0076 -24.7184 -7.17439 0.61471 2.5646
-0.00111 -0.00078 -0.00455 -172.42311 -39.34972 1.03531 44.57417 3.16918 1.32773 10.20609 -6.37057 -1.10836 12.23814 -10.98378 7.23962 28.27863 84.60926 2.23734 -0.64216 7.14105 9.52583 -12.39485 45.86693 -82.82404 -1.24154 -0.24385 42.66464 -1.6582 -10.94162 -20.07792 -6.27991 -2.11946 -3.25243 49.20672 3.92808 4.19488 -24.7199 -7.17958 0.59835 2.55669
-0.00164 -0.00091 -0.00486 -172.41573 -39.37623 1.06714 44.68824 3.21871 1.26388 9.58826 -6.24698 -1.11017 9.7683 -11.03475 5.65712 27.9245 85.42987 2.19338 -0.00182 3.49123 9.8068 -10.9999 45.52508 -82.54913 -1.54368 -0.39381 42.62728 -1.65629 -10.98858 -20.06844 -6.27528 -2.10793 -3.24642 49.17366 3.97218 4.35459 -24.72161 -7.17915 0.58975 2.55252
-0.00225 -0.00103 -0.00512 -172.42417 -39.40891 1.09802 44.81437 3.27735 1.1439 8.92814 -6.16052 -1.11194 7.02592 -11.08168 3.84165 27.58011 86.4335 2.11825 0.79254 -0.49081 10.02797 -9.35925 45.02575 -82.19713 -1.9045 -0.53747 42.58412 -1.6457 -10.96815 -20.05015 -6.27175 -2.10345 -3.24274 49.13305 4.01163 4.50258 -24.72304 -7.17669 0.58398 2.54976
-0.00284 -0.00115 -0.00541 -172.42335 -39.43811 1.1299 44.93664 3.33162 1.04509 8.28467 -6.06234 -1.11373 4.39973 -11.12773 2.12511 27.23626 87.30107 2.05536 1.47708 -4.3253 10.2877 -7.89453 44.60078 -81.89281 -2.21534 -0.66415 42.54115 -1.63939 -10.97952 -20.03538 -6.26769 -2.09547 -3.23792 49.09388 4.05269 4.654 -24.72418 -7.17518 0.57685 2.54638
-0.00337 -0.00128 -0.00569 -172.43064 -39.46984 1.15937 45.05203 3.38679 0.96308 7.65146 -5.94252 -1.11552 1.80313 -11.18555 0.43603 26.87099 88.38621 1.99947 2.3262 -8.15189 10.51068 -6.18156 44.16225 -81.50349 -2.63296 -0.86524 42.5078 -1.63166 -10.9862 -20.02257 -6.26373 -2.08877 -3.23345 49.0626 4.0958 4.81343 -24.72708 -7.17357 0.56995 2.54291
-0.00403 -0.0014 -0.00597 -172.42565 -39.49821 1.19364 45.18468 3.44235 0.83454 6.98746 -5.87653 -1.11729 -0.91688 -11.21749 -1.36374 26.55325 89.06915 1.92296 2.87386 -12.06626 10.78173 -4.89789 43.71646 -81.31237 -2.83174 -0.92156 42.4539 -1.62479 -10.98615 -20.00368 -6.25987 -2.08105 -3.22879 49.01372 4.13362 4.95335 -24.72626 -7.17167 0.56334 2.53998
-0.00504 -0.00148 -0.00627 -172.37542 -39.51189 1.24152 45.36097 3.49581 0.57641 6.24429 -5.95031 -1.11901 -3.93178 -11.18187 -3.42904 26.35934 88.53859 1.78778 2.51045 -16.20206 11.32657 -5.12362 43.27479 -81.33657 -2.5034 -0.4761 42.33736 -1.62299 -10.9891 -19.9692 -6.25562 -2.0691 -3.22321 48.91277 4.15728 5.04235 -24.71516 -7.16952 0.55616 2.53795
-0.00616 -0.00155 -0.00656 -172.31361 -39.52266 1.29424 45.55418 3.54955 0.27632 5.47286 -6.0769 -1.1207 -7.05566 -11.11942 -5.59638 26.21395 87.61323 1.63624 1.84671 -20.40197 11.90099 -5.7476 42.83445 -81.6185 -1.93816 0.09792 42.20173 -1.62229 -10.98688 -19.92907 -6.25151 -2.05583 -3.21732 48.79539 4.17587 5.11194 -24.70036 -7.16716 0.54933 2.53648
-0.00722 -0.00162 -0.00687 -172.26207 -39.53739 1.34468 45.74063 3.60367 0.00498 4.71684 -6.17919 -1.1224 -10.11822 -11.06778 -7.7035 26.04956 86.89966 1.49637 1.34629 -24.53459 12.37556 -6.00752 42.40242 -82.0252 -1.41816 0.54209 42.07963 -1.62068 -10.98345 -19.89212 -6.2476 -2.04298 -3.21148 48.68896 4.19732 5.19053 -24.68733 -7.16488 0.54278 2.53492
-0.00833 -0.0017 -0.00714 -172.19021 -39.54141 1.39547 45.92452 3.65573 -0.30984 3.94686 -6.28417 -1.12412 -13.2476 -11.02336 -9.86948 25.87233 86.03322 1.33114 0.73479 -28.84554 13.20169 -7.00335 41.92538 -81.44882 -1.15354 1.27806 41.93677 -1.62039 -10.99185 -19.85223 -6.24259 -2.03113 -3.20612 48.56741 4.21645 5.26859 -24.6739 -7.16258 0.53443 2.53269
-0.00937 -0.00176 -0.00747 -172.1574 -39.56671 1.44666 46.1164 3.71232 -0.54254 3.20186 -6.39547 -1.1258 -16.25073 -10.95567 -11.94377 25.73363 85.41736 1.22326 0.2853 -32.78888 13.31735 -6.5998 41.54681 -82.93102 -0.31278 1.44917 41.83277 -1.61788 -10.97628 -19.81728 -6.23992 -2.01678 -3.19966 48.47372 4.23903 5.34248 -24.66043 -7.16032 0.52991 2.53199
-0.01019 -0.00174 -0.00793 -172.23763 -39.65361 1.49789 46.33607 3.77899 -0.54431 2.51557 -6.51218 -1.12725 -18.95572 -10.84883 -13.64545 25.68583 85.32731 1.20372 0.31874 -35.75794 11.34531 -1.93103 41.4221 -90.46979 2.16854 -0.07779 41.84024 -1.60759 -10.88751 -19.79721 -6.24352 -1.99589 -3.19027 48.45966 4.27461 5.41694 -24.64802 -7.15819 0.53545 2.5351
-0.01092 -0.00169 -0.00844 -172.35684 -39.7615 1.54931 46.56107 3.85062 -0.46036 1.85907 -6.63294 -1.12874 -21.51288 -10.7175 -15.26077 25.67562 85.53743 1.2524 0.52959 -38.34123 8.68076 4.10082 41.40161 -99.98635 5.1996 -2.15746 41.88757 -1.59534 -10.77667 -19.78241 -6.2495 -1.97251 -3.17977 48.47457 4.31349 5.48686 -24.63576 -7.15615 0.54484 2.53973
-0.01167 -0.00166 -0.00892 -172.45687 -39.85847 1.60053 46.77741 3.92147 -0.41167 1.2001 -6.75128 -1.1302 -24.0873 -10.58346 -16.98532 25.65069 85.79897 1.32368 0.68621 -41.06412 6.41002 9.30963 41.34449 -108.31776 7.91136 -3.9144 41.91703 -1.58492 -10.6817 -19.76529 -6.25452 -1.95019 -3.16972 48.477 4.34933 5.55371 -24.62312 -7.15405 0.55279 2.54387
-0.01251 -0.00163 -0.00942 -172.56359 -39.96157 1.6524 47.02166 3.98608 -0.38098 0.49234 -6.87453 -1.13142 -26.88146 -10.50104 -18.44699 25.61803 85.31038 1.18465 0.73047 -43.94587 3.80201 15.36854 41.23765 -117.8841 10.93325 -5.97002 41.94488 -1.57053 -10.56186 -19.74752 -6.25906 -1.92803 -3.15986 48.4756 4.39127 5.64027 -24.61119 -7.15189 0.55965 2.54731
-0.01313 -0.00158 -0.0099 -172.66467 -40.05645 1.70291 47.2076 4.06493 -0.29076 -0.10503 -6.98708 -1.13353 -29.17511 -10.31299 -20.39816 25.60908 86.38968 1.47928 1.04292 -46.39719 1.73706 19.98023 41.26456 -125.32309 13.42585 -7.53507 41.98566 -1.56397 -10.48863 -19.73258 -6.26514 -1.90506 -3.14938 48.48971 4.42163 5.68656 -24.59846 -7.15008 0.56943 2.55242
-0.01321 -0.00148 -0.01033 -172.74959 -40.12709 1.74928 47.2411 4.18143 -0.06582 -0.41604 -7.07472 -1.1348 -30.17238 -9.77519 -24.03571 25.66209 92.34821 3.13729 2.15751 -47.81137 1.29432 20.3128 41.59037 -126.59681 14.41852 -7.62409 42.05336 -1.57875 -10.54927 -19.72316 -6.27493 -1.87992 -3.13708 48.53707 4.4169 5.60811 -24.58075 -7.14743 0.58851 2.56291
-0.01305 -0.00137 -0.01074 -172.82551 -40.18784 1.79408 47.21361 4.31235 0.21829 -0.61495 -7.14979 -1.13752 -30.65947 -9.14325 -28.11293 25.73634 99.76891 5.19812 3.51923 -48.7934 1.42993 19.13702 42.05645 -125.63227 14.84403 -7.1994 42.13238 -1.60139 -10.65721 -19.7167 -6.28612 -1.85425 -3.1243 48.60038 4.40084 5.49145 -24.56446 -7.14538 0.61006 2.57485
-0.01298 -0.00127 -0.01115 -172.9002 -40.25103 1.84009 47.20775 4.43677 0.48075 -0.85744 -7.22705 -1.1418 -31.34929 -8.59756 -31.7787 25.79691 106.10203 6.95141 4.69859 -49.93718 1.33221 18.61721 42.48665 -125.55411 15.46038 -7.00023 42.20595 -1.62119 -10.74422 -19.70954 -6.29673 -1.82907 -3.11194 48.65705 4.39153 5.40285 -24.54718 -7.14431 0.62896 2.58534
-0.013 -0.00117 -0.01159 -173.00023 -40.32454 1.88497 47.22859 4.56044 0.72253 -1.12919 -7.32072 -1.13696 -32.16416 -7.87073 -36.32213 25.87588 114.19453 9.22129 6.17367 -51.21911 1.08862 18.25843 42.79919 -126.0635 16.36367 -6.84969 42.2831 -1.63874 -10.82987 -19.69962 -6.30748 -1.80236 -3.09853 48.70884 4.37563 5.27168 -24.52436 -7.13826 0.65415 2.59909
-0.01277 -0.00106 -0.01197 -173.04291 -40.37282 1.93062 47.17824 4.6899 1.02225 -1.3148 -7.37545 -1.15117 -32.59031 -7.49511 -39.15926 25.92102 119.01237 10.52411 7.09675 -52.10905 1.29163 17.20195 43.39334 -124.8343 16.54609 -6.47381 42.35382 -1.66174 -10.92761 -19.69633 -6.31786 -1.77922 -3.0874 48.77837 4.37063 5.21669 -24.52216 -7.14234 0.66715 2.60655
-0.01192 -0.00095 -0.01218 -172.94626 -40.36326 1.98907 46.95453 4.82432 1.45155 -1.28007 -7.34034 -1.22015 -32.14299 -8.14737 -37.03715 25.86603 114.02368 8.93432 6.37068 -52.08187 2.62267 14.46118 44.69443 -118.97006 14.70997 -5.55412 42.41359 -1.70739 -11.06769 -19.70854 -6.33021 -1.7619 -3.08091 48.8578 4.39884 5.41189 -24.50155 -7.17751 0.64279 2.5948
-0.01082 -0.00083 -0.01233 -172.78923 -40.32684 2.04638 46.65958 4.96537 1.94017 -1.16385 -7.26373 -1.30781 -31.30757 -9.14994 -33.20956 25.77516 105.76027 6.37906 5.09234 -51.66715 4.38109 11.08495 46.28234 -111.49097 12.19422 -4.43106 42.46445 -1.75652 -11.21527 -19.72766 -6.34156 -1.74892 -3.07702 48.96131 4.43804 5.67983 -24.51545 -7.22223 0.60684 2.57705
